<?xml version="1.0" encoding="UTF-8" standalone="no"?>
<!-- Created with Inkscape (http://www.inkscape.org/) -->

<svg
   version="1.1"
   id="svg1"
   width="1024"
   height="1024"
   viewBox="0 0 1024 1024"
   sodipodi:docname="logo-mark-dark.svg"
   inkscape:version="1.4.2 (f4327f4, 2025-05-13)"
   xmlns:inkscape="http://www.inkscape.org/namespaces/inkscape"
   xmlns:sodipodi="http://sodipodi.sourceforge.net/DTD/sodipodi-0.dtd"
   xmlns="http://www.w3.org/2000/svg"
   xmlns:svg="http://www.w3.org/2000/svg">
  <defs
     id="defs1" />
  <sodipodi:namedview
     id="namedview1"
     pagecolor="#ffffff"
     bordercolor="#000000"
     borderopacity="0.25"
     inkscape:showpageshadow="2"
     inkscape:pageopacity="0.0"
     inkscape:pagecheckerboard="0"
     inkscape:deskcolor="#d1d1d1"
     inkscape:zoom="0.79589844"
     inkscape:cx="511.37178"
     inkscape:cy="410.22822"
     inkscape:window-width="1920"
     inkscape:window-height="1017"
     inkscape:window-x="-8"
     inkscape:window-y="-8"
     inkscape:window-maximized="1"
     inkscape:current-layer="g1" />
  <g
     inkscape:groupmode="layer"
     inkscape:label="Image"
     id="g1">
    <path
       style="fill:#000000"
       d="m 264.17629,821.93 c -20.15153,-3.79704 -34.66007,-23.7888 -30.75143,-43.93378 -0.16145,-35.46111 -0.32291,-70.92223 -0.48437,-106.38335 -10.06835,-12.04588 -25.20312,-21.23218 -30.85782,-36.0089 5.60296,-15.18895 26.41971,-21.8521 30.91733,-36.42156 0.88174,-43.68265 -2.264,-87.78412 2.39207,-131.13847 5.85908,-19.97024 26.68747,-31.00685 46.44401,-27.78959 10.11872,-1.34945 25.11939,2.11807 32.16392,-2.26467 0.90272,-64.14039 -7.07594,-132.4073 27.65374,-189.99987 43.3694,-79.90328 146.58362,-122.22001 232.60259,-89.84557 81.06532,26.84579 137.76349,109.37136 135.97043,194.47942 0.5513,29.06341 0.6578,58.13288 0.9664,87.19949 17.44054,1.29694 35.8936,-1.60845 52.70434,2.30235 30.75913,10.12613 27.59623,46.13496 27.07171,72.03546 0.0573,29.69268 0.0201,59.38545 0.0308,89.07818 14.24596,14.23758 46.51815,33.60472 17.30277,50.81019 -7.05981,8.96818 -21.10923,15.02272 -17.2932,28.47621 -0.71278,37.80933 0.72773,76.12392 -1.31776,113.62053 -11.82199,33.83638 -51.81168,25.39783 -79.61776,26.38871 C 561.445,822.84269 412.79634,823.47939 264.17629,821.93 Z M 550,762.5307 C 640.60888,748.00939 718.82671,694.20711 785.79002,634.10395 736.91756,591.85823 690.88399,543.49616 629.67244,518.83337 532.53758,474.71176 414.18226,491.71348 329.59836,555.2787 296.47996,578.44651 268.86173,608.19823 238,634.06592 c 72.89444,65.5812 160.65548,125.95293 261.78802,130.70164 16.74559,-0.21387 33.54822,-0.44345 50.21198,-2.23686 z m -57.5,-11.57809 c -72.24677,-9.6472 -119.78581,-92.55357 -95.00474,-160.36995 17.77925,-59.36459 85.22228,-95.14029 144.46982,-78.72788 67.13923,15.19194 109.38032,93.99311 84.58161,158.3438 C 608.50573,725.2011 549.47239,760.08122 492.5,750.95261 Z M 480.2979,699.25 c 6.34596,-27.45802 28.71294,-56.35851 -2.60379,-74.99924 -16.68252,-34.78774 28.67203,-72.67436 58.59182,-46.85952 26.91059,19.76171 10.12358,54.80568 -6.97334,70.10865 7.58386,19.61702 10.94708,49.60462 22.06672,62.00113 43.70965,-24.71876 61.40944,-85.00717 35.23987,-128.48467 -23.24757,-42.69562 -84.20755,-58.58999 -123.39558,-28.41932 -49.31923,33.29044 -49.0774,113.51152 -1.81842,148.55485 9.02679,7.94561 16.81373,15.47814 18.89272,-1.90188 z M 268.07194,625.8829 C 319.56057,586.90534 367.52718,537.61734 433,523.44715 403.30582,543.17743 382.35807,574.09582 373.32341,608.42397 367.52357,593.40839 385.6796,554.8267 360.19731,578.6945 328.66976,597.89068 298.89662,622.64541 262.21007,631 l 1.07587,-1.50315 z m 487.41949,3.63357 c -38.96631,-12.43198 -71.1518,-38.97438 -106.15738,-59.18386 2.15663,14.22843 3.6919,54.77461 -4.90918,19.77029 -2.128,-25.35708 -49.02243,-59.97835 -47.24516,-64.92469 64.56022,17.45137 112.09476,67.22517 164.58615,105.48663 z M 251.27447,476.23438 c 13.31384,-21.511 41.03549,-20.20079 63.22553,-23.0651 -20.50879,2.37013 -46.06835,-6.66506 -61.32316,10.68046 -3.43743,1.62967 -10.3977,29.67471 -1.90237,12.38464 z m 525.63187,0.73664 c -0.28573,-35.99201 -69.85589,-21.0964 -68.55659,-22.95633 25.00254,1.02299 56.45172,1.94661 69.10515,27.98531 z M 640,392.53438 c 1.989,-46.71845 -1.36717,-98.33297 -35.95874,-133.77093 -43.69935,-51.81916 -130.68335,-54.4566 -177.12618,-4.99984 -32.72675,30.45766 -43.49678,76.53904 -40.54578,119.84527 -0.19123,22.13021 -0.34088,44.26075 -0.51259,66.39112 84.71443,0 169.42886,0 254.14329,0 0,-15.82187 0,-31.64375 0,-47.46562 z"
       id="path1" />
  </g>
</svg>
